<svg xmlns="http://www.w3.org/2000/svg" xmlns:xlink="http://www.w3.org/1999/xlink" viewBox="0 0 66 81" fill="#151515" fill-rule="evenodd" stroke="#000" stroke-linecap="round" stroke-linejoin="round"><use xlink:href="#A" x=".5" y=".5"/><symbol id="A" overflow="visible"><g fill="#ff2441" stroke="none"><path d="M32.5 39.732h5.675v17.181H32.5z"/><path d="M31.468 0C14.444 0 0 6.98 0 12.886v54.228C0 74.094 18.056 80 34.564 80S65 74.094 65 67.651V12.886C65 6.98 47.976 0 31.468 0zM32.5 5.369c11.865 0 21.667 2.685 21.667 6.443s-9.802 6.443-21.667 6.443-21.667-2.685-21.667-6.98S20.635 5.369 32.5 5.369z"/></g><path d="M55.199 49.396c-2.063 0-3.095 1.074-3.095 4.295v4.832c0 3.221-.516 4.832-2.064 6.98-1.547 1.074-4.127 1.611-7.222 1.611v-4.295c1.032 0 2.063-.537 2.579-1.074s1.032-1.611 1.032-2.685v-4.832c0-3.222 1.032-6.443 3.095-6.98h0c-2.064-1.074-3.095-3.221-3.095-7.517v-5.906c0-2.684-1.032-3.758-3.095-3.758v-4.832h1.548c2.064 0 4.127 1.074 5.675 2.148 1.032 1.074 2.064 3.221 2.064 6.98v4.832c0 2.685 1.032 4.295 3.095 4.295l-.516 5.906h0zM21.667 66.577c-3.095 0-5.675-.537-7.222-1.611-1.032-1.074-2.063-3.221-2.063-6.98v-5.906c0-2.684-1.032-4.295-3.095-4.295v-3.758c2.063 0 3.095-1.611 3.095-4.295v-5.369c0-3.221.516-4.832 2.063-6.443 1.548-1.074 3.611-1.611 7.222-1.611v4.295c-2.064 0-3.095 1.074-3.095 3.758v4.832c0 3.221-1.032 6.443-3.095 7.517h0c2.063 1.074 3.095 3.221 3.095 7.517v4.832c0 1.611.516 2.685 1.032 3.221s1.548 1.074 2.579 1.074l-.516 3.222h0z" stroke="none"/></symbol></svg>